<?xml version="1.0" encoding="UTF-8"?>
<svg id="Layer_1" data-name="Layer 1" xmlns="http://www.w3.org/2000/svg" viewBox="60 195 365 100">
  <defs>
    <style>
      .cls-1 {
        fill: #2171d8;
      }

      .cls-2 {
        fill: #002854;
      }
    </style>
  </defs>
  <g>
    <path class="cls-2" d="M163.11,268.31v-28.62h12.84c2.15,0,4.01.35,5.59,1.05,1.58.7,2.8,1.69,3.65,2.96.85,1.28,1.28,2.79,1.28,4.53,0,1.32-.28,2.49-.85,3.51-.56,1.02-1.33,1.85-2.31,2.5-.98.64-2.1,1.05-3.36,1.21l-.12-.36c1.95,0,3.44.41,4.46,1.23,1.02.82,1.6,2.08,1.73,3.77l.74,8.22h-6.4l-.54-7.26c-.08-1.1-.43-1.91-1.05-2.44-.62-.52-1.67-.79-3.16-.79h-6.23v10.48h-6.27ZM169.38,252.71h5.86c1.51,0,2.69-.34,3.53-1.03.84-.69,1.26-1.66,1.26-2.92s-.43-2.26-1.28-2.92c-.85-.66-2.09-.99-3.71-.99h-5.65v7.86Z"/>
    <path class="cls-2" d="M200.17,268.79c-2.26,0-4.22-.46-5.9-1.39-1.68-.93-2.99-2.24-3.92-3.93-.94-1.69-1.4-3.68-1.4-5.97s.47-4.27,1.4-5.95c.94-1.68,2.24-2.99,3.92-3.93,1.68-.94,3.65-1.41,5.9-1.41s4.22.47,5.9,1.41c1.68.94,2.99,2.25,3.92,3.93.94,1.68,1.4,3.66,1.4,5.95s-.47,4.27-1.4,5.97c-.94,1.69-2.24,3-3.92,3.93-1.68.93-3.65,1.39-5.9,1.39ZM200.17,264.16c1.54,0,2.74-.58,3.59-1.75.85-1.17,1.28-2.8,1.28-4.9s-.43-3.73-1.28-4.9c-.85-1.17-2.05-1.75-3.59-1.75s-2.74.58-3.59,1.75c-.85,1.17-1.28,2.8-1.28,4.9s.43,3.73,1.28,4.9c.85,1.17,2.05,1.75,3.59,1.75Z"/>
    <path class="cls-2" d="M214.12,268.31v-28.62h6.19v12.05h-.83c.22-1.26.65-2.3,1.3-3.1.65-.81,1.46-1.41,2.43-1.81.98-.4,2.04-.6,3.2-.6,1.65,0,3.03.35,4.13,1.05,1.1.7,1.93,1.67,2.5,2.9.56,1.24.85,2.65.85,4.23v13.91h-6.19v-12.46c0-1.61-.25-2.82-.76-3.63-.51-.81-1.37-1.21-2.58-1.21s-2.26.42-2.97,1.25c-.72.83-1.07,2.08-1.07,3.75v12.29h-6.19Z"/>
    <path class="cls-2" d="M237.11,268.31v-21.61h5.86l.21,6.29-.45-.12c.36-2.18.99-3.75,1.9-4.72.91-.97,2.16-1.45,3.76-1.45h2.02v5h-2.02c-1.16,0-2.1.15-2.85.44-.74.3-1.3.77-1.67,1.41-.37.64-.56,1.52-.56,2.62v12.13h-6.19Z"/>
    <path class="cls-2" d="M253.33,268.31v-28.62h12.84c2.15,0,4.01.35,5.59,1.05,1.58.7,2.8,1.69,3.65,2.96.85,1.28,1.28,2.79,1.28,4.53,0,1.32-.28,2.49-.85,3.51-.56,1.02-1.33,1.85-2.31,2.5-.98.64-2.1,1.05-3.36,1.21l-.12-.36c1.95,0,3.44.41,4.46,1.23,1.02.82,1.6,2.08,1.73,3.77l.74,8.22h-6.4l-.54-7.26c-.08-1.1-.43-1.91-1.05-2.44-.62-.52-1.67-.79-3.16-.79h-6.23v10.48h-6.27ZM259.6,252.71h5.86c1.51,0,2.69-.34,3.53-1.03.84-.69,1.26-1.66,1.26-2.92s-.43-2.26-1.28-2.92c-.85-.66-2.09-.99-3.71-.99h-5.65v7.86Z"/>
    <path class="cls-2" d="M289.85,268.79c-2.26,0-4.22-.46-5.88-1.39-1.67-.93-2.96-2.24-3.88-3.93-.92-1.69-1.38-3.68-1.38-5.97s.46-4.27,1.38-5.95c.92-1.68,2.21-2.99,3.86-3.93,1.65-.94,3.6-1.41,5.86-1.41s4.11.47,5.74,1.41c1.62.94,2.88,2.28,3.78,4.03.89,1.75,1.34,3.83,1.34,6.25v1.21h-15.56c.08,1.72.56,3,1.42,3.83.87.83,2.02,1.25,3.45,1.25,1.05,0,1.92-.21,2.62-.64.7-.43,1.2-1.09,1.51-1.97l6.23.36c-.58,2.15-1.8,3.83-3.67,5.04-1.87,1.21-4.14,1.81-6.81,1.81ZM285.1,255.41h9.2c-.08-1.59-.53-2.77-1.34-3.55-.81-.78-1.86-1.17-3.16-1.17s-2.36.41-3.2,1.23c-.84.82-1.34,1.98-1.51,3.49Z"/>
    <path class="cls-2" d="M300.29,251.22v-4.51h15.56v4.51h-15.56ZM310.49,268.31c-2.28,0-3.96-.52-5.04-1.55-1.07-1.03-1.61-2.68-1.61-4.94v-20.19h6.19v19.47c0,1.05.23,1.76.68,2.14.45.38,1.13.56,2.04.56h3.1v4.51h-5.37ZM315.4,251.22v-4.51h15.56v4.51h-15.56ZM325.59,268.31c-2.28,0-3.96-.52-5.04-1.55-1.07-1.03-1.61-2.68-1.61-4.94v-20.19h6.19v19.47c0,1.05.23,1.76.68,2.14.45.38,1.14.56,2.04.56h3.1v4.51h-5.37Z"/>
    <path class="cls-2" d="M343.05,268.79c-2.26,0-4.22-.46-5.88-1.39-1.67-.93-2.96-2.24-3.88-3.93-.92-1.69-1.38-3.68-1.38-5.97s.46-4.27,1.38-5.95c.92-1.68,2.21-2.99,3.86-3.93,1.65-.94,3.6-1.41,5.86-1.41s4.11.47,5.74,1.41c1.62.94,2.88,2.28,3.78,4.03.89,1.75,1.34,3.83,1.34,6.25v1.21h-15.56c.08,1.72.56,3,1.42,3.83.87.83,2.02,1.25,3.45,1.25,1.05,0,1.92-.21,2.62-.64.7-.43,1.2-1.09,1.51-1.97l6.23.36c-.58,2.15-1.8,3.83-3.67,5.04-1.87,1.21-4.14,1.81-6.81,1.81ZM338.3,255.41h9.2c-.08-1.59-.53-2.77-1.34-3.55-.81-.78-1.86-1.17-3.16-1.17s-2.36.41-3.2,1.23c-.84.82-1.34,1.98-1.51,3.49Z"/>
    <path class="cls-2" d="M356.09,268.31v-21.61h5.86l.21,6.29-.45-.12c.36-2.18.99-3.75,1.9-4.72.91-.97,2.16-1.45,3.76-1.45h2.02v5h-2.02c-1.16,0-2.1.15-2.85.44-.74.3-1.3.77-1.67,1.41-.37.64-.56,1.52-.56,2.62v12.13h-6.19Z"/>
    <path class="cls-1" d="M372.19,268.31c0-2.44.34-4.57,1.01-6.37.67-1.8,1.77-3.41,3.3-4.84,1.53-1.42,3.56-2.78,6.09-4.07,1.35-.67,2.41-1.27,3.2-1.79.78-.52,1.34-1.05,1.67-1.59.33-.54.5-1.17.5-1.89s-.16-1.31-.47-1.83c-.32-.52-.78-.94-1.38-1.25-.61-.31-1.36-.46-2.27-.46-1.49,0-2.66.42-3.53,1.27-.87.85-1.41,2.08-1.63,3.69l-6.44-.36c.27-3.04,1.41-5.42,3.4-7.15,1.99-1.73,4.7-2.6,8.11-2.6,2.26,0,4.17.36,5.76,1.09,1.58.73,2.79,1.73,3.63,3.02.84,1.29,1.26,2.8,1.26,4.51,0,1.51-.25,2.77-.76,3.79-.51,1.02-1.33,1.96-2.46,2.82-1.13.86-2.61,1.77-4.46,2.74-2.37,1.24-4.11,2.37-5.24,3.41-1.13,1.03-1.73,1.94-1.82,2.72h14.73v5.16h-22.2Z"/>
    <path class="cls-1" d="M410.28,268.31v-5.44h-14.57v-4.88l13.37-18.3h7.47v18.02h3.43v5.16h-3.43v5.44h-6.27ZM402.36,257.71h7.92v-10.48l-7.92,10.48Z"/>
  </g>
  <g>
    <path class="cls-1" d="M138.68,239.24c0,7.67-3.6,15-9.63,19.62-1.96,1.5-4.14,2.77-8.7,5.13l-6.1-5.96c.5-1.82.7-3.67.64-5.51,3.73-2.01,5.02-2.76,6.17-3.63,3-2.3,4.76-6.02,4.67-9.94-.16-6.85-6.15-12.2-13.16-12.2h-19.56c-7.16,0-12.96-5.67-12.96-12.66h32.91c14.19,0,25.74,11.28,25.74,25.14Z"/>
    <path class="cls-1" d="M121.45,285.9h17.24l-28.46-26.94c2.3-5.53,1.16-12.11-3.44-16.6-4.91-4.8-12.27-5.74-18.15-2.84l7.76,7.58c1.92,1.87,1.92,4.9,0,6.77-1.92,1.87-5.02,1.87-6.94,0l-7.76-7.58c-2.97,5.74-2,12.93,2.91,17.72,4.6,4.49,11.33,5.61,17,3.36l19.84,18.53Z"/>
  </g>
</svg>